<?xml version="1.0" encoding="UTF-8"?>
<!DOCTYPE svg PUBLIC "-//W3C//DTD SVG 1.1//EN" "http://www.w3.org/Graphics/SVG/1.1/DTD/svg11.dtd">
<!-- Creator: CorelDRAW X6 -->
<svg xmlns="http://www.w3.org/2000/svg" xml:space="preserve" width="46.3628mm" height="46.3372mm" version="1.1" style="shape-rendering:geometricPrecision; text-rendering:geometricPrecision; image-rendering:optimizeQuality; fill-rule:evenodd; clip-rule:evenodd"
viewBox="0 0 4241 4239"
 xmlns:xlink="http://www.w3.org/1999/xlink">
 <defs>
  <style type="text/css">
   <![CDATA[
    .fil2 {fill:#34526E}
    .fil1 {fill:#7192B0;fill-rule:nonzero}
    .fil0 {fill:#C1D3E3;fill-rule:nonzero}
   ]]>
  </style>
 </defs>
 <g id="Слой_x0020_1">
  <metadata id="CorelCorpID_0Corel-Layer"/>
  <path class="fil0" d="M972 579c-45,33 -108,24 -141,-21 -33,-45 -24,-108 21,-141 183,-136 385,-240 598,-311 213,-70 438,-107 665,-107 323,0 638,74 922,211 284,137 537,338 738,591 35,43 27,107 -16,141 -43,35 -107,27 -141,-16 -182,-230 -411,-411 -668,-535 -257,-124 -542,-191 -835,-191 -206,0 -409,33 -602,97 -193,64 -376,158 -541,281z"/>
  <path class="fil1" d="M271 1569c-38,40 -102,42 -142,4 -40,-38 -42,-102 -4,-142 281,-299 583,-544 910,-719 330,-177 685,-283 1070,-306 4,0 7,0 11,0 632,-5 960,329 1249,623 210,214 397,404 663,382 55,-5 104,37 109,92 5,55 -37,104 -92,109 -359,30 -577,-192 -823,-442 -261,-266 -558,-567 -1105,-563l0 0c-355,21 -682,119 -987,282 -307,164 -591,395 -858,680z"/>
  <path class="fil0" d="M178 2343c-35,43 -99,49 -141,14 -43,-35 -49,-99 -14,-141 88,-108 182,-207 284,-291 104,-86 217,-158 341,-208 51,-21 110,4 131,56 21,51 -4,110 -56,131 -102,41 -198,102 -287,176 -92,76 -177,166 -257,263z"/>
  <path class="fil0" d="M2216 4145c-4,55 -52,97 -108,93 -55,-4 -97,-52 -93,-108 44,-577 233,-1015 580,-1300 344,-284 839,-411 1497,-370 55,3 98,51 94,107 -3,55 -51,98 -107,94 -604,-38 -1052,74 -1357,325 -302,248 -467,639 -507,1160z"/>
  <path class="fil1" d="M2754 4079c-1,55 -47,99 -103,98 -55,-1 -99,-47 -98,-103 9,-388 123,-676 347,-855 222,-178 545,-244 976,-191 55,7 95,57 88,112 -7,55 -57,94 -112,88 -375,-46 -648,5 -826,147 -175,141 -264,377 -272,704z"/>
  <path class="fil1" d="M317 2931c-35,43 -99,49 -141,14 -43,-35 -49,-99 -14,-141 58,-71 111,-125 169,-175 55,-48 116,-93 192,-146 45,-32 108,-21 140,24 32,45 21,108 -24,140 -68,48 -124,89 -176,134 -50,43 -96,89 -146,150z"/>
  <path class="fil1" d="M3639 2064c-55,2 -102,-41 -105,-96 -2,-55 41,-102 96,-105l22 -1c127,-6 291,-13 514,46 54,14 86,69 72,123 -14,54 -69,86 -123,72 -194,-51 -341,-44 -455,-39l-22 1z"/>
  <path class="fil0" d="M683 3506c-30,47 -93,60 -139,29 -47,-30 -60,-93 -29,-139 35,-53 74,-108 123,-163 49,-55 105,-110 172,-160 44,-33 107,-25 141,20 33,44 25,107 -20,141 -56,42 -102,87 -142,132 -40,45 -74,93 -105,141z"/>
  <path class="fil1" d="M1407 3961c5,55 -36,104 -91,109 -55,5 -104,-36 -109,-91 -10,-107 1,-208 30,-302 29,-95 77,-182 143,-262 35,-43 99,-49 141,-14 43,35 49,99 14,141 -49,60 -85,124 -106,194 -22,70 -29,145 -22,226z"/>
  <path class="fil0" d="M3556 3385c37,-42 100,-46 142,-9 42,37 46,100 9,142 -91,104 -192,198 -300,281 -109,84 -226,157 -349,218 -50,25 -110,4 -135,-46 -25,-50 -4,-110 46,-135 112,-55 217,-122 316,-197 99,-76 190,-161 272,-255z"/>
  <path class="fil2" d="M1068 1625c-53,-22 -125,-47 -175,-47 -35,0 -66,-21 -79,-53 -13,-32 -6,-69 19,-93 236,-236 871,-546 1207,-546 263,5 468,207 581,430 273,44 572,217 738,438 25,34 22,82 -8,112l-44 44 44 44c16,16 25,38 25,61 0,23 -9,45 -25,61 -168,164 -444,337 -685,337l-180 0c-19,51 -45,103 -83,142 -41,42 -95,67 -154,67 -35,0 -66,-21 -79,-53 -13,-32 -6,-69 16,-91 -1,-33 -34,-86 -55,-118 -55,-5 -127,-38 -176,-58 -92,-37 -233,-97 -331,-97 -112,0 -227,177 -227,279 0,52 62,175 120,175 49,-6 310,-241 361,-289 24,-23 58,-29 89,-18 31,12 52,40 55,73 13,162 -8,416 -129,536 -64,64 -24,194 14,262 19,34 13,78 -16,104 -16,15 -37,23 -58,23 -17,0 -33,-5 -47,-14 -82,-54 -177,-77 -271,-100 -138,-34 -264,-68 -368,-172 -226,-226 -338,-410 -338,-738 0,-247 109,-507 260,-701zm1412 308c-4,-25 -5,-51 -5,-76 0,-115 40,-274 148,-335 41,-23 93,-9 116,32 23,40 10,92 -30,115 -49,32 -63,134 -63,188 0,52 15,157 63,187 39,25 52,77 29,116 -15,26 -43,42 -73,42 -15,0 -29,-4 -42,-11 -35,-20 -62,-50 -83,-83 -2,44 -7,89 -14,132l139 0c174,0 367,-121 501,-231l-40 -40c-33,-33 -33,-87 0,-121l48 -48c-185,-194 -445,-328 -717,-328 -400,0 -1269,240 -1269,748 0,90 14,223 50,343 -8,-28 -12,-56 -12,-83 0,-197 189,-450 398,-450 88,0 185,29 274,62 -6,-6 -13,-12 -19,-18 -35,-32 -37,-86 -6,-121 32,-35 86,-37 121,-6 107,97 265,263 331,406 36,-99 49,-248 47,-341 -1,-48 38,-86 87,-87 8,1 15,2 22,5zm445 -213c76,0 138,62 138,138 0,76 -62,138 -138,138 -76,0 -138,-62 -138,-138 0,-76 62,-138 138,-138zm-1682 865c34,104 85,197 161,240 40,23 56,74 33,115 -15,27 -44,45 -75,45 -14,0 -28,-3 -40,-10 -61,-32 -124,-107 -161,-164 -110,-171 -145,-388 -145,-588 0,-205 102,-373 250,-505 -13,-6 -25,-13 -38,-19 -142,166 -250,409 -250,628 0,280 95,425 288,617 76,76 187,102 288,126 46,11 91,22 136,37 -13,-98 7,-194 80,-267 46,-46 66,-138 75,-212 -88,76 -243,202 -327,202 -124,0 -233,-121 -275,-244zm349 -1078c-115,-57 -276,-105 -396,-137 -40,24 -78,50 -116,77 116,40 231,98 337,157 56,-36 115,-68 175,-97zm29 -345c-72,28 -144,59 -214,93 119,38 301,103 376,173 103,-37 210,-66 318,-87 -119,-96 -339,-158 -480,-179zm318 -95c137,48 287,125 364,244 37,-4 75,-6 112,-7 -87,-128 -215,-244 -376,-247 -33,0 -67,4 -100,10z"/>
 </g>
</svg>
